# xmcd
#
# Track frame offsets:
#	150
#	1105
#	16710
#	33552
#	48137
#	60977
#	74507
#	90630
#	106557
#	121820
#	138212
#	153305
#	166867
#	182732
#	199632
#	216092
#	234440
#	250232
#
# Disc length: 3536 seconds
#
# Revision: 1
# Processed by: cddbd v1.5PL3 Copyright (c) Steve Scherf et al.
# Submitted via: CDex 1.50Beta5
#
DISCID=d50dce12
DTITLE=REMIXERS are MST・D.J K.Hasegawa・横田商会・B4 ZA BEAT - DAynamite Mix Juice1〜You know beat?〜
DYEAR=1900
DGENRE=
TTITLE0="Daynamite Mix Juice1〜You know beat?〜"
TTITLE1=ナンダカンダ〜RED MONSTER MIX〜
TTITLE2=情熱BALLAD〜Y&Co.Remix〜
TTITLE3=HOT LIMIT〜Y&Co.Remix〜
TTITLE4=灼熱BLLADE〜RED MONSTER MIX〜
TTITLE5=臍淑女-ヴィーナス-〜RED MONSTER MIX〜
TTITLE6=HIGH PRESSURE"夏祭り SUMMER FESTA"MIX
TTITLE7=PERFECT FUTURE?〜Y&Co.Remix〜
TTITLE8=LEVEL 4〜KH-R Jr EURO SOLUTION MIX〜
TTITLE9=PURE WHITE〜KH-R Jr EURO SOLUTION MIX〜
TTITLE10=太陽のグラヴィティー〜Y&Co.Remix〜
TTITLE11=独裁-monopolize-〜RED MONSTER MIX〜
TTITLE12=月虹〜RED MONSTER MIX〜
TTITLE13=Spicy Marmalade〜RED MONSTER MIX〜
TTITLE14=高熱BLOOD〜KH-R ROLLING STEP VrS〜
TTITLE15=FATE WEATHER〜KH-R SPEED KING VrS〜
TTITLE16=CRAZY JET〜B4 ZA Beat MIX〜
TTITLE17=YURA-YURA Vibration〜RED MONSTER MIX〜
EXTD=
EXTT0=
EXTT1=
EXTT2=
EXTT3=
EXTT4=
EXTT5=
EXTT6=
EXTT7=
EXTT8=
EXTT9=
EXTT10=
EXTT11=
EXTT12=
EXTT13=
EXTT14=
EXTT15=
EXTT16=
EXTT17=
PLAYORDER=
